{"title":"Vasili Sigarev - Volchok.2009.x264.DVDRip.(AVC).KinozalSAT","uid":8752897,"size":1546192828,"categoryP":"video","categoryS":"movies","magnet":"?xt=urn:btih:05cf1b60754a89de43d0c1b473d18ba1080196a8&amp;dn=Vasili+Sigarev+-+Volchok.2009.x264.DVDRip.%28AVC%29.KinozalSAT&amp;tr=udp%3A%2F%2Ftracker.openbittorrent.com%3A80&amp;tr=udp%3A%2F%2Fopen.demonii.com%3A1337&amp;tr=udp%3A%2F%2Ftracker.coppersurfer.tk%3A6969&amp;tr=udp%3A%2F%2Fexodus.desync.com%3A6969","seeders":1,"leechers":0,"uploader":"rpessoa","files":1,"time":1375075991,"description":"There are two of them: a mother and a girl. They have no names. And they are in a constant run. The mother runs away from the daughter in an attempt to start new life, and the girl runs after her mother as she has no idea how to live without her. This endless run is full with repeated mistakes and resembles a barrel-organ sorrowful song or a spinning-top rotation. This small ridiculous toy &quot;volchok&quot; was the first toy in the girl's life, the only thing that tied her with the mother. But one day this running comes to an end. Written by KOKTEBEL Film Company\n &lt;a href=&quot;\nhttp://www.imdb.com/title/tt1446206/&quot; rel=&quot;nofollow&quot; target=&quot;_NEW&quot;&gt;\nhttp://www.imdb.com/title/tt1446206/&lt;/a&gt;\n\nGeneral\nUnique ID                                : 186294073395679888890265984835126272992 (0x8C26EEF605052FD8B90E49E4C8FFA3E0)\nComplete name                            : Volchok.2009.x264.DVDRip.(AVC).KinozalSAT.mkv\nFormat                                   : Matroska\nFormat version                           : Version 2\nFile size                                : 1.44 GiB\nDuration                                 : 1h 25mn\nOverall bit rate                         : 2 404 Kbps\nEncoded date                             : UTC 2011-05-19 03:44:07\nWriting application                      : mkvmerge v3.3.0 ('Language') built on Mar 24 2010 14:59:24\nWriting library                          : libebml v0.8.0 + libmatroska v0.9.0\n\nVideo\nID                                       : 1\nFormat                                   : AVC\nFormat/Info                              : Advanced Video Codec\nFormat profile                           : &lt;a class=&quot;__cf_email__&quot; href=&quot;/cdn-cgi/l/email-protection&quot; data-cfemail=&quot;1951707e7159552d3729&quot;&gt;[email&amp;#160;protected]&lt;/a&gt;&lt;script cf-hash='f9e31' type=&quot;text/javascript&quot;&gt;\n/* &lt;![CDATA[ */!function(){try{var t=&quot;currentScript&quot;in document?document.currentScript:function(){for(var t=document.getElementsByTagName(&quot;script&quot;),e=t.length;e--;)if(t[e].getAttribute(&quot;cf-hash&quot;))return t[e]}();if(t&amp;&amp;t.previousSibling){var e,r,n,i,c=t.previousSibling,a=c.getAttribute(&quot;data-cfemail&quot;);if(a){for(e=&quot;&quot;,r=parseInt(a.substr(0,2),16),n=2;a.length-n;n+=2)i=parseInt(a.substr(n,2),16)^r,e+=String.fromCharCode(i);e=document.createTextNode(e),c.parentNode.replaceChild(e,c)}}}catch(u){}}();/* ]]&gt; */&lt;/script&gt;\nFormat settings, CABAC                   : Yes\nFormat settings, ReFrames                : 5 frames\nCodec ID                                 : V_MPEG4/ISO/AVC\nDuration                                 : 1h 25mn\nBit rate                                 : 1 957 Kbps\nWidth                                    : 1 024 pixels\nHeight                                   : 576 pixels\nDisplay aspect ratio                     : 16:9\nFrame rate                               : 25.000 fps\nColor space                              : YUV\nChroma subsampling                       : 4:2:0\nBit depth                                : 8 bits\nScan type                                : Progressive\nBits/(Pixel*Frame)                       : 0.133\nStream size                              : 1.14 GiB (79%)\nWriting library                          : x264 core 92 r1510 33d382a\nEncoding settings                        : cabac=1 // deblock=1:-1:-1 / analyse=0x3:0x133 / me=umh / subme=9 / psy=1 / psy_rd=1.00:0.10 // me_range=32 / chroma_me=1 / trellis=2 / 8x8dct=1 / cqm=0 / deadzone=21,11 / fast_pskip=0 / chroma_qp_offset=-3 / threads=3 / sliced_threads=0 / nr=0 / decimate=1 / interlaced=0 / constrained_intra=0 / bframes=3 / b_pyramid=2 / b_adapt=2 / b_bias=0 / direct=3 / wpredb=1 / wpredp=2 / keyint=250 / keyint_min=25 / scenecut=40 / intra_refresh=0 / rc_lookahead=50 / rc=2pass / mbtree=1 / bitrate=1957 / ratetol=1.0 / qcomp=0.60 / qpmin=10 / qpmax=51 / qpstep=4 / cplxblur=20.0 / qblur=0.5 / ip_ratio=1.40 / aq=1:1.00\nDefault                                  : Yes\nForced                                   : No\n\nAudio\nID                                       : 2\nFormat                                   : AC-3\nFormat/Info                              : Audio Coding 3\nMode extension                           : CM (complete main)\nCodec ID                                 : A_AC3\nDuration                                 : 1h 25mn\nBit rate mode                            : Constant\nBit rate                                 : 448 Kbps\nChannel(s)                               : 6 channels\nChannel positions                        : Front: L C R, Side: L R, LFE\nSampling rate                            : 48.0 KHz\nBit depth                                : 16 bits\nCompression mode                         : Lossy\nStream size                              : 275 MiB (19%)\nDefault                                  : Yes\nForced                                   : No","torrent":{"xt":"urn:btih:05cf1b60754a89de43d0c1b473d18ba1080196a8","amp;dn":"Vasili+Sigarev+-+Volchok.2009.x264.DVDRip.%28AVC%29.KinozalSAT","amp;tr":["udp%3A%2F%2Ftracker.openbittorrent.com%3A80","udp%3A%2F%2Fopen.demonii.com%3A1337","udp%3A%2F%2Ftracker.coppersurfer.tk%3A6969","udp%3A%2F%2Fexodus.desync.com%3A6969"],"infoHash":"05cf1b60754a89de43d0c1b473d18ba1080196a8","infoHashBuffer":{"type":"Buffer","data":[5,207,27,96,117,74,137,222,67,208,193,180,115,209,139,161,8,1,150,168]},"announce":[],"urlList":[]}}